<svg version="1.1" id="Capa_1" xmlns="http://www.w3.org/2000/svg" xmlns:xlink="http://www.w3.org/1999/xlink" x="0px" y="0px" width="612px" height="612px" viewBox="0 0 612 612" style="enable-background:new 0 0 612 612;" xml:space="preserve">
<g>
	<g id="Shape_11_2_">
		<g>
			<path d="M135.963,304.238c-28.646,0-51.951,22.832-51.951,50.895c0,28.063,23.295,50.896,51.951,50.896
				c28.636,0,51.941-22.832,51.941-50.896C187.904,327.079,164.608,304.238,135.963,304.238z M135.963,386.69
				c-17.758,0-32.209-14.155-32.209-31.558c0-17.401,14.451-31.557,32.209-31.557c17.758,0,32.199,14.155,32.199,31.557
				C168.162,372.535,153.721,386.69,135.963,386.69z M501.189,300.438c-30.778,0-55.82,24.539-55.82,54.705
				c0,30.155,25.043,54.705,55.82,54.705c30.776,0,55.819-24.539,55.819-54.705C557.019,324.977,531.976,300.438,501.189,300.438z
				 M501.189,390.49c-19.9,0-36.078-15.863-36.078-35.358s16.188-35.357,36.078-35.357c19.89,0,36.077,15.862,36.077,35.357
				C537.277,374.637,521.088,390.49,501.189,390.49z M217.161,387.508h207.29v-19.347h-207.29V387.508z M604.617,271.752
				c-8.321-2.122-36.039-9.16-71.584-17.995v-21.005h49.354v-19.348H513.29v35.466c-82.808-20.413-193.293-46.719-213.045-46.719
				c-20.996,0-132.004,39.068-209.492,67.3l0.197-0.434l-51.467-22.032v41.34c-11.243,4.185-19.485,7.275-23.276,8.706l-6.337,2.379
				v68.751H0v19.347h59.226v-19.347H29.613v-55.455c36.355-13.632,80.774-29.909,123.14-44.903
				c16.119-1.154,220.873-0.532,357.141,0.188c28.716,7.068,56.995,14.155,82.363,20.601v45.702l-30.136,40.057l15.882,11.479
				L612,340.652v-67.015L604.617,271.752z M59.226,281.011v-4.462l5.607,2.399C62.927,279.649,61.052,280.339,59.226,281.011z
				 M210.113,247.884c45.387-15.389,81.139-26.385,90.132-26.385c11.223,0,64.408,11.667,128.086,26.75
				C317.431,247.766,250.525,247.716,210.113,247.884z"></path>
		</g>
	</g>
</g>
<g>
</g>
<g>
</g>
<g>
</g>
<g>
</g>
<g>
</g>
<g>
</g>
<g>
</g>
<g>
</g>
<g>
</g>
<g>
</g>
<g>
</g>
<g>
</g>
<g>
</g>
<g>
</g>
<g>
</g>
</svg>