<svg xmlns="http://www.w3.org/2000/svg" viewBox="0 0 1100 1100" width="150" height="150"><style>		tspan { white-space:pre }		.shp0 { fill: #010101 } 		.shp1 { fill: #ffffff } 		.shp2 { fill: none } 	</style><path id="Layer" class="shp0" d="M550 190.58C577.13 190.6 604.27 191.21 631.37 192.39C658.48 193.57 685.56 195.33 712.6 197.66C739.63 200 766.61 202.91 793.52 206.4C820.43 209.89 847.26 213.95 874 218.58C875.65 262.84 877.52 331.25 874.38 389.31C867.38 518.75 838.86 619.22 784.7 705.49C730.7 791.49 647.11 865.49 550.01 909.41C452.92 865.48 369.32 791.51 315.33 705.49C261.16 619.23 232.67 518.76 225.64 389.32C222.48 331.26 224.36 262.85 226 218.59C252.74 213.96 279.57 209.9 306.48 206.41C333.39 202.92 360.37 200.01 387.4 197.67C414.44 195.33 441.52 193.57 468.63 192.39C495.73 191.21 522.87 190.6 550 190.58L550 190.58Z"></path><path id="Layer" class="shp1" d="M550 208.5C575.78 208.52 601.56 209.1 627.32 210.22C653.07 211.34 678.8 213.01 704.49 215.23C730.17 217.45 755.81 220.22 781.38 223.54C806.94 226.85 832.44 230.71 857.84 235.11C859.4 277.16 861.18 342.17 858.2 397.33C851.51 520.33 824.44 615.78 772.98 697.75C721.69 779.48 642.25 849.75 549.98 891.5C457.73 849.76 378.29 779.5 326.98 697.75C275.53 615.75 248.45 520.32 241.77 397.33C238.77 342.17 240.56 277.16 242.12 235.11C267.53 230.71 293.02 226.85 318.59 223.53C344.16 220.22 369.8 217.45 395.49 215.23C421.18 213.01 446.91 211.34 472.67 210.22C498.43 209.1 524.22 208.52 550 208.5L550 208.5Z"></path><path id="Layer" class="shp0" d="M550 220.35C525.19 220.37 500.38 220.91 475.59 221.96C450.8 223.01 426.04 224.57 401.31 226.64C376.59 228.71 351.91 231.29 327.29 234.38C302.67 237.47 278.12 241.07 253.65 245.17C251.48 307.56 251.48 357.17 253.65 396.69C260.19 517.58 286.7 611.25 337 691.45C387.3 771.65 462.81 837.88 550 878.45C637.15 837.86 712.63 771.62 763 691.45C813.37 611.28 839.84 517.58 846.41 396.69C848.56 357.2 848.56 307.56 846.41 245.17C821.94 241.07 797.38 237.47 772.76 234.38C748.13 231.29 723.45 228.71 698.72 226.64C673.99 224.57 649.22 223.01 624.42 221.96C599.63 220.91 574.82 220.37 550 220.35L550 220.35Z"></path><path id="Layer" class="shp1" d="M549.15 579.49C549.15 579.49 551.08 591 551.67 594.34C551.76 594.69 551.83 595.04 551.88 595.4C551.92 595.75 551.94 596.11 551.94 596.47C551.93 596.83 551.9 597.19 551.84 597.54C551.79 597.9 551.71 598.25 551.6 598.59C550.05 604.59 542.89 636.02 537.16 668.23L536.27 673.32C533.93 686.88 531.91 700.32 530.73 711.87C530.06 718.41 530.28 719.98 532.01 725.79C536.9 742.2 555.01 785.08 558.49 792.9C558.58 793.11 558.67 793.33 558.75 793.55C558.82 793.77 558.89 794 558.95 794.22C559.01 794.45 559.07 794.68 559.11 794.91C559.16 795.14 559.19 795.37 559.22 795.6L559.22 795.6L560.52 805.71C554.72 796.95 523.2 738.96 510.82 706.85C509.36 703.06 509.08 701.2 510.69 694.25C519.3 657.35 542.6 594.66 549.15 579.49Z"></path><path id="Layer" class="shp1" d="M503.18 490.36C503.18 490.36 505.6 498.22 507.94 506.74L508.75 509.74C509.08 510.94 509.4 512.14 509.71 513.34C510.01 514.55 510.3 515.75 510.57 516.97C510.84 518.18 511.09 519.4 511.33 520.61C511.57 521.83 511.79 523.06 512 524.28C512.14 524.9 512.23 525.53 512.26 526.16C512.3 526.8 512.28 527.44 512.21 528.07C512.14 528.7 512.02 529.32 511.85 529.94C511.68 530.55 511.46 531.14 511.19 531.72C508.32 539.39 503.02 551.72 497.37 564.31L495 569.72C488 585 481 599.78 477.59 606.17C477.17 606.95 476.72 607.72 476.25 608.46C475.77 609.21 475.26 609.93 474.72 610.64C474.18 611.34 473.62 612.03 473.02 612.69C472.43 613.35 471.81 613.98 471.17 614.59C463.96 621.94 450.17 635.82 441.61 643.59C438.5 646.42 437.67 648.83 437.03 652.49C436.03 658.36 435.03 668.38 434.72 673.55C434.48 678.1 435.22 680.23 437.72 684.74C452.79 711.63 503.08 773.51 517.41 786.5C517.72 786.78 518.04 787.05 518.36 787.32C518.68 787.58 519.01 787.84 519.34 788.09C519.68 788.34 520.01 788.58 520.36 788.82C520.7 789.05 521.05 789.28 521.41 789.5C523.51 790.9 530.41 795.36 530.41 795.36C530.48 795.41 530.54 795.46 530.61 795.51C530.67 795.57 530.73 795.63 530.79 795.69C530.85 795.75 530.9 795.81 530.95 795.88C531 795.95 531.05 796.02 531.09 796.09L531.09 796.09L533.58 800.47L532.93 800.15L531.85 799.61L528.53 798L525.33 796.4C520.44 793.94 514.6 790.98 511.54 789.33C511.22 789.16 510.91 788.98 510.61 788.8C510.3 788.61 510 788.42 509.7 788.22C509.4 788.02 509.11 787.81 508.82 787.6C508.54 787.38 508.26 787.16 507.98 786.93C491.2 772.98 439.79 712.75 424.67 687.61C420.9 681.33 420.51 679.3 421.01 673.36C422.01 662.3 423.43 648.36 424.72 642.29C424.85 641.45 425.04 640.61 425.3 639.8C425.55 638.98 425.86 638.19 426.24 637.42C426.61 636.65 427.04 635.91 427.52 635.21C428 634.5 428.54 633.83 429.12 633.21C438.58 622.3 450.12 607.91 461.38 593.14L465.33 587.91C482.38 565.25 498.08 542.57 503.94 531.02C504.21 530.57 504.45 530.1 504.65 529.62C504.85 529.14 505.01 528.64 505.14 528.13C505.26 527.62 505.35 527.11 505.4 526.59C505.45 526.07 505.46 525.54 505.43 525.02C505.5 517.82 503.21 503.8 502.6 500.26C502.58 500.12 502.56 499.98 502.54 499.84C502.53 499.7 502.52 499.56 502.51 499.42C502.51 499.28 502.51 499.14 502.51 499C502.51 498.86 502.52 498.72 502.53 498.58L502.53 498.58L503.18 490.36Z"></path><path id="Layer" class="shp1" d="M643.51 476.85L647.85 478.74C648.17 478.88 648.49 479.03 648.79 479.21C649.1 479.38 649.4 479.56 649.69 479.76C649.97 479.96 650.25 480.18 650.52 480.41C650.78 480.63 651.04 480.88 651.28 481.13C677.93 508.97 699.28 537.84 703.52 545.45C703.73 545.8 703.92 546.16 704.09 546.53C704.26 546.91 704.41 547.28 704.54 547.67C704.68 548.06 704.79 548.45 704.89 548.85C704.98 549.24 705.06 549.65 705.11 550.05C709.9 590.65 705.78 633.67 696 671.05C695.11 674.43 694.12 676.16 690.88 678.6C680.43 686.46 664.88 699 649.34 711.79L644.45 715.79C625.77 731.26 608.03 746.42 600.5 753.39C600.03 753.83 599.57 754.28 599.13 754.75C598.69 755.21 598.26 755.7 597.85 756.19C597.44 756.69 597.05 757.2 596.68 757.72C596.3 758.25 595.95 758.78 595.61 759.33C592.08 765.16 586.68 775 584 780L583.26 781.38L582.42 782.94C578.91 775.27 571.25 756.55 568.63 748.99C567.77 746.52 567.63 745.23 568.52 741.92C572.81 726.23 593.05 680.63 596.99 672.38L596.99 672.38L596.99 675.76C596.99 675.88 596.98 676 596.97 676.13C596.96 676.25 596.95 676.37 596.93 676.49C596.91 676.61 596.89 676.73 596.86 676.85C596.83 676.97 596.8 677.08 596.76 677.2C594.98 682.59 584.1 718.53 581.88 734.12C581.76 734.76 581.67 735.41 581.62 736.06C581.56 736.72 581.53 737.37 581.53 738.02C581.53 738.68 581.56 739.33 581.62 739.99C581.67 740.64 581.76 741.29 581.88 741.93C582.88 749.2 587.2 762.55 587.2 762.55C587.57 761.78 587.96 761.01 588.36 760.25C588.75 759.49 589.16 758.73 589.58 757.98C589.99 757.23 590.42 756.49 590.86 755.75C591.29 755.01 591.74 754.28 592.2 753.55C592.47 753.13 592.75 752.73 593.05 752.33C593.34 751.93 593.65 751.54 593.97 751.16C594.28 750.78 594.61 750.41 594.95 750.05C595.3 749.69 595.65 749.34 596.01 749C605.75 739.36 622.35 724.46 639.65 709.48L645.77 704.2C659.06 692.79 672.33 681.68 682.77 673.2C685.49 670.99 686.51 669.52 687.11 665.33C690.11 644.68 690.99 607.63 689.18 580.66C689.1 579.39 688.93 578.13 688.68 576.89C688.43 575.65 688.1 574.42 687.69 573.22C687.28 572.02 686.79 570.85 686.23 569.71C685.67 568.57 685.03 567.47 684.32 566.42C677.81 556.61 670 547.4 658 535.58C657.58 535.16 657.19 534.71 656.83 534.23C656.48 533.75 656.16 533.25 655.88 532.72C655.6 532.19 655.36 531.65 655.16 531.08C654.96 530.52 654.81 529.95 654.7 529.36C651.23 510.8 643.47 476.85 643.47 476.85L643.51 476.85Z"></path><path id="Layer" class="shp1" d="M418.12 519.8C418.53 519.67 418.95 519.56 419.37 519.49C419.8 519.41 420.23 519.36 420.66 519.35C421.09 519.33 421.52 519.35 421.95 519.39C422.38 519.43 422.8 519.51 423.22 519.61C430.82 521.44 446.9 525.38 459.06 528.5C459.54 528.65 460 528.83 460.45 529.06C460.9 529.29 461.33 529.55 461.73 529.85C462.13 530.14 462.51 530.47 462.86 530.84C463.2 531.2 463.52 531.59 463.8 532L463.8 532L466.45 536.41C466.68 536.79 466.86 537.19 466.98 537.61C467.11 538.04 467.18 538.47 467.19 538.91C467.21 539.35 467.16 539.79 467.07 540.22C466.97 540.65 466.82 541.07 466.62 541.46C464.41 545.75 461.26 551.55 457.92 557.54L455.4 562.04C450.76 570.29 446.14 578.24 443.52 582.42C441.79 585.19 440.83 586.42 437.75 587.5C425.75 591.71 410.94 596.74 402.11 599.61C400.3 600.19 399.69 601.29 400.04 603.29C400.68 606.94 402.71 619.29 403.49 622.94C403.56 623.3 403.7 623.65 403.91 623.95C404.12 624.25 404.39 624.51 404.71 624.7C405.02 624.89 405.38 625.01 405.74 625.05C406.11 625.09 406.48 625.05 406.83 624.94C412.05 623.94 425.94 620.55 425.94 620.55C425.94 620.55 421.84 624.34 419.39 626.55C419.28 626.65 419.16 626.75 419.04 626.84C418.92 626.93 418.8 627.02 418.67 627.1C418.54 627.17 418.4 627.24 418.26 627.31C418.13 627.37 417.98 627.42 417.84 627.47C414.06 628.74 404.84 631.33 401.93 631.97C399.69 632.45 398.25 631.57 397.68 629.02C397.68 629.02 393.74 612.23 392.31 606.52C392.09 605.65 391.86 604.9 391.59 604.04C390.52 600.73 387.96 594.24 386.51 590.83C386.47 590.73 386.43 590.63 386.4 590.53C386.37 590.43 386.34 590.32 386.32 590.22C386.3 590.11 386.28 590.01 386.27 589.9C386.26 589.79 386.26 589.69 386.26 589.58C386.31 585.69 387.02 577.02 387.02 577.02C387.02 577.02 395.53 585.02 399.64 587.88C399.82 588.03 400.01 588.16 400.22 588.26C400.43 588.37 400.65 588.44 400.88 588.48C401.11 588.53 401.35 588.54 401.58 588.52C401.81 588.51 402.04 588.46 402.26 588.38C407.92 586.92 420.92 582.62 428.05 579.95C428.46 579.8 428.85 579.62 429.23 579.41C429.61 579.21 429.98 578.98 430.33 578.72C430.68 578.47 431.02 578.2 431.33 577.9C431.65 577.6 431.95 577.29 432.22 576.95C434.31 574.36 436.34 571.72 438.31 569.04C440.28 566.35 442.18 563.62 444.02 560.84C445.85 558.06 447.62 555.24 449.32 552.38C451.02 549.52 452.66 546.62 454.22 543.68C454.4 543.32 454.55 542.95 454.66 542.57C454.77 542.19 454.84 541.79 454.88 541.39C454.91 541 454.91 540.6 454.87 540.2C454.83 539.8 454.75 539.41 454.63 539.03L454.63 539.03L453.48 535.24C453.37 534.93 453.23 534.64 453.06 534.36C452.89 534.09 452.69 533.83 452.47 533.59C452.24 533.35 452 533.13 451.73 532.94C451.47 532.76 451.19 532.59 450.89 532.46C438.31 527.67 428.4 524.11 416.74 520.14L416.74 520.14L418.12 519.8Z"></path><path id="Layer" class="shp1" d="M666.88 411.73C667.56 411.48 668.27 411.29 668.99 411.17C669.7 411.05 670.43 411 671.16 411.01C671.89 411.03 672.61 411.12 673.32 411.27C674.03 411.42 674.73 411.64 675.4 411.92C696.49 420.78 731.94 441.63 751.65 456.31C752.07 456.56 752.45 456.86 752.81 457.2C753.16 457.53 753.47 457.91 753.74 458.31C754.02 458.71 754.24 459.14 754.42 459.6C754.6 460.05 754.73 460.52 754.81 461C759.43 482.06 761.19 514.63 758.28 542C758.23 542.46 758.16 542.91 758.07 543.37C757.98 543.82 757.86 544.27 757.73 544.71C757.59 545.15 757.43 545.58 757.25 546C757.07 546.43 756.87 546.84 756.65 547.25C744.16 572.81 730.11 596.87 715.31 615.42L715.31 615.42L715.31 615.12C715.51 613.12 716.57 602 716.63 595.97C716.63 595.8 716.65 595.64 716.69 595.48C716.73 595.31 716.78 595.16 716.86 595.01C716.93 594.86 717.02 594.72 717.13 594.59C717.24 594.47 717.36 594.35 717.49 594.25C720.24 592.11 724.01 589.08 726.14 587.25C726.35 587.08 726.56 586.9 726.75 586.71C726.95 586.52 727.14 586.32 727.32 586.11C727.5 585.91 727.67 585.7 727.84 585.48C728 585.26 728.16 585.03 728.3 584.8C734.3 575.05 745.1 554.65 749.44 542.37C749.7 541.62 749.93 540.87 750.11 540.1C750.3 539.33 750.44 538.55 750.55 537.76C750.65 536.98 750.71 536.19 750.73 535.4C750.75 534.61 750.72 533.82 750.66 533.03C749.27 515.93 746.59 492.22 742.59 476.76C742.43 476.11 742.19 475.48 741.9 474.88C741.6 474.27 741.24 473.71 740.82 473.18C740.41 472.65 739.93 472.17 739.42 471.75C738.9 471.32 738.34 470.95 737.74 470.64C734.3 468.87 727.53 465.79 712.13 459.64C711.6 459.43 711.07 459.19 710.56 458.94C710.05 458.68 709.54 458.4 709.05 458.11C708.56 457.81 708.08 457.5 707.61 457.16C707.14 456.83 706.69 456.48 706.25 456.11C696.15 447.62 680.36 434.89 670.53 427.56C669.83 427.03 669.07 426.58 668.26 426.22C667.46 425.86 666.62 425.58 665.76 425.4C664.9 425.21 664.03 425.12 663.15 425.13C662.27 425.13 661.39 425.24 660.53 425.43C653.37 427.05 644.26 429.32 639.13 430.71C638.79 430.82 638.45 430.91 638.1 430.98C637.75 431.04 637.39 431.09 637.04 431.11C636.68 431.14 636.33 431.14 635.97 431.13C635.62 431.11 635.26 431.07 634.91 431.01C633.97 430.9 632.76 430.78 631.49 430.67L629.56 430.5L624.4 430.08L624.03 430.08C640.74 422.19 656.82 415.41 666.88 411.73Z"></path><path id="Layer" class="shp1" d="M444 550C442.78 552.04 441.53 554.06 440.24 556.06C438.96 558.06 437.64 560.04 436.29 561.99C434.94 563.95 433.56 565.88 432.15 567.8C430.74 569.71 429.29 571.6 427.82 573.46C427.66 573.65 427.49 573.83 427.31 573.99C427.13 574.16 426.94 574.31 426.74 574.45C426.54 574.59 426.33 574.72 426.11 574.83C425.89 574.95 425.67 575.05 425.44 575.13C420.28 577.07 411.68 579.98 405.34 581.91L405.34 581.91L444 550Z"></path><path id="Layer" class="shp1" d="M374.9 538.7L371.82 560L361.34 547.68C363.25 543.54 368.83 539.63 374.9 538.68L374.9 538.7Z"></path><path id="Layer" class="shp1" d="M431.38 418.12L428.52 421.65L428.04 422.12C425.52 423.98 414.91 432.12 412.04 434.4C411.86 434.53 411.69 434.67 411.54 434.84C411.39 435 411.25 435.18 411.14 435.37C411.02 435.56 410.93 435.76 410.86 435.97C410.79 436.18 410.74 436.4 410.71 436.62C410.06 440.22 408.99 447.07 408.71 450.86C408.71 451.11 408.66 451.35 408.58 451.58C408.5 451.81 408.38 452.03 408.22 452.22C408.07 452.42 407.88 452.58 407.68 452.71C407.47 452.85 407.24 452.94 407 453C402.08 455 396.24 457.12 391.52 459C391.35 459.06 391.18 459.12 391.02 459.19C390.85 459.26 390.69 459.33 390.53 459.42C390.37 459.5 390.22 459.59 390.07 459.69C389.92 459.79 389.77 459.89 389.63 460C389.16 460.37 382.89 466 382.89 466C382.89 466 396.52 462.64 401.52 461.51C401.75 461.44 401.99 461.39 402.23 461.37C402.47 461.34 402.72 461.35 402.96 461.37C403.2 461.4 403.44 461.45 403.67 461.53C403.9 461.61 404.12 461.71 404.33 461.83C405.33 462.31 407.09 462.99 407.99 463.32C408.28 463.44 408.58 463.53 408.88 463.6C409.19 463.66 409.5 463.7 409.81 463.72C410.12 463.73 410.44 463.72 410.75 463.68C411.06 463.64 411.36 463.57 411.66 463.48C417.29 462.22 426.77 459.97 431.81 458.65C432.38 458.52 432.93 458.35 433.48 458.16C434.03 457.97 434.57 457.75 435.1 457.51C435.62 457.26 436.14 456.98 436.64 456.68C437.13 456.38 437.62 456.06 438.08 455.71C440.5 454.02 446.61 449.43 446.61 449.43C446.61 449.43 446.5 450.24 446.42 450.69C446.41 450.77 446.38 450.86 446.36 450.94C446.33 451.02 446.3 451.1 446.26 451.18C446.22 451.26 446.17 451.33 446.12 451.4C446.07 451.47 446.02 451.54 445.96 451.6C444.72 453.1 442.54 455.54 441.46 456.65C440.98 457.19 440.47 457.69 439.93 458.17C439.39 458.64 438.82 459.08 438.22 459.48C437.63 459.88 437.01 460.25 436.37 460.58C435.73 460.91 435.07 461.19 434.39 461.44C420.06 467.44 395.58 476.69 377.21 483.06C376.96 483.13 376.71 483.23 376.47 483.34C376.24 483.45 376.01 483.57 375.79 483.71C375.57 483.86 375.35 484.01 375.16 484.19C374.96 484.36 374.77 484.54 374.6 484.74C373.6 485.74 372.34 487.16 372.34 487.16C372.34 487.16 387.34 488.25 391.88 488.77C392.22 488.8 392.56 488.86 392.89 488.95C393.22 489.04 393.54 489.15 393.85 489.29C394.16 489.43 394.46 489.59 394.75 489.78C395.03 489.97 395.3 490.18 395.55 490.41C399.31 493.64 411.75 506.46 415.47 510.91C415.47 510.91 380.11 516.79 363.73 520.91C363.31 521 362.9 521.14 362.52 521.34C362.14 521.54 361.79 521.8 361.48 522.1C361.17 522.4 360.91 522.74 360.69 523.12C360.48 523.5 360.33 523.9 360.23 524.32C358.88 529.08 355.68 544.41 355.68 544.41C355.44 544.33 355.21 544.24 354.98 544.14C354.75 544.04 354.52 543.94 354.29 543.84C354.06 543.73 353.84 543.62 353.62 543.5C353.39 543.38 353.18 543.26 352.96 543.13C352.69 542.97 352.43 542.8 352.17 542.62C351.92 542.44 351.67 542.25 351.44 542.05C351.2 541.85 350.97 541.63 350.75 541.41C350.53 541.19 350.32 540.96 350.12 540.72C348.92 539.42 347.75 538.1 346.59 536.76C345.44 535.42 344.31 534.06 343.2 532.69C342.09 531.31 341 529.92 339.93 528.51C338.87 527.09 337.83 525.67 336.81 524.22C335.91 522.88 335.53 521.17 336.66 519.8C339.98 515.71 346.66 508.24 350.33 504.4C350.47 504.24 350.61 504.07 350.74 503.89C350.87 503.72 351 503.54 351.12 503.36C351.23 503.18 351.35 502.99 351.45 502.8C351.56 502.61 351.66 502.42 351.75 502.22C352.99 499.76 354.62 493.52 355.19 491.27L355.37 490.54L355.37 490.54L355.37 490.45L355.27 490.51L354.59 490.93L351.59 492.83C351.41 492.92 351.24 493.02 351.08 493.14C350.92 493.25 350.77 493.38 350.64 493.53C350.5 493.67 350.38 493.83 350.27 494C350.16 494.16 350.07 494.34 349.99 494.52C349.39 495.78 348.35 497.75 347.55 499.12C347.46 499.26 347.36 499.39 347.26 499.52C347.16 499.64 347.05 499.77 346.94 499.89C346.83 500.01 346.71 500.13 346.59 500.24C346.47 500.35 346.35 500.46 346.22 500.56C341.53 504.15 336.34 508.01 332.64 510.56C332.58 510.6 332.51 510.63 332.44 510.64C332.37 510.66 332.3 510.66 332.22 510.65C332.15 510.64 332.08 510.62 332.02 510.58C331.96 510.55 331.9 510.5 331.85 510.45C331.38 509.98 329.4 507.73 329.05 507.21C328.98 507.11 328.92 507 328.86 506.89C328.81 506.78 328.76 506.67 328.73 506.55C328.69 506.43 328.66 506.31 328.65 506.19C328.63 506.07 328.62 505.94 328.62 505.82C328.62 504.88 328.71 503.23 328.8 502.01C328.91 500.56 329.33 499.87 331.09 498.01C333.09 496.01 335.21 493.81 337.47 491.6C343.01 486.93 357.01 475.6 381.99 457.72C382.11 457.64 382.22 457.55 382.34 457.46C382.45 457.37 382.56 457.27 382.66 457.17C382.76 457.07 382.86 456.97 382.96 456.86C383.05 456.75 383.14 456.64 383.23 456.52C385.86 452.98 393.31 443.3 395.15 441C395.21 440.92 395.28 440.84 395.35 440.76C395.42 440.68 395.49 440.61 395.57 440.54C395.64 440.46 395.71 440.39 395.79 440.32C395.87 440.25 395.95 440.18 396.03 440.12C396.62 439.65 397.21 439.18 397.81 438.72C398.41 438.27 399.02 437.82 399.63 437.39C400.25 436.95 400.87 436.53 401.5 436.11C402.13 435.7 402.77 435.29 403.41 434.9C410.41 430.51 423.85 422.51 431.41 418.11L431.38 418.12Z"></path><path id="Layer" class="shp1" d="M583.65 410.21C583.91 410.17 584.17 410.14 584.44 410.14C584.7 410.13 584.96 410.15 585.22 410.18C585.48 410.22 585.74 410.27 585.99 410.35C586.25 410.42 586.49 410.52 586.73 410.63L586.73 410.63L594.03 414.13C594.21 414.22 594.37 414.32 594.53 414.44C594.68 414.57 594.82 414.7 594.95 414.86C595.07 415.01 595.18 415.18 595.26 415.36C595.35 415.53 595.41 415.72 595.46 415.91C596.46 420.09 597.67 425.62 598.46 430.33C598.54 430.81 598.58 431.3 598.58 431.79C598.58 432.28 598.54 432.77 598.45 433.25C598.37 433.73 598.24 434.21 598.08 434.67C597.91 435.13 597.7 435.57 597.46 436C594.46 441.25 588.24 450.7 584.77 455.78C584.59 456.07 584.44 456.37 584.33 456.68C584.21 457 584.12 457.33 584.07 457.66C584.02 457.99 583.99 458.33 584.01 458.66C584.02 459 584.06 459.33 584.14 459.66C585.71 468.36 592.27 498.76 592.27 498.76L592.27 498.76L588.14 495C587.94 494.82 587.76 494.64 587.59 494.44C587.42 494.24 587.26 494.03 587.11 493.81C586.97 493.59 586.84 493.36 586.72 493.12C586.61 492.88 586.51 492.64 586.43 492.39C583.5 483.79 578 465.82 575.43 457.08C575.33 456.73 575.27 456.37 575.26 456C575.25 455.64 575.28 455.27 575.35 454.91C575.43 454.55 575.54 454.21 575.7 453.87C575.85 453.54 576.05 453.23 576.28 452.95C580.59 447.72 586.86 439.36 590.53 434.05C590.78 433.75 590.98 433.42 591.14 433.07C591.31 432.72 591.42 432.35 591.49 431.97C591.55 431.59 591.57 431.2 591.54 430.82C591.5 430.43 591.42 430.05 591.29 429.69C590.44 427.96 589.02 425.33 587.66 422.94C587.57 422.78 587.46 422.62 587.34 422.48C587.22 422.33 587.09 422.2 586.94 422.08C586.8 421.97 586.64 421.86 586.48 421.77C586.31 421.68 586.14 421.61 585.96 421.55L585.96 421.55L581.05 420C580.84 419.93 580.62 419.87 580.4 419.84C580.17 419.8 579.95 419.78 579.73 419.78C579.5 419.78 579.28 419.8 579.05 419.84C578.83 419.87 578.61 419.93 578.4 420C567.62 423.92 553.11 429.57 544.23 433.25C543.97 433.38 543.69 433.48 543.41 433.56C543.13 433.64 542.85 433.69 542.56 433.72C542.26 433.75 541.97 433.75 541.68 433.73C541.39 433.71 541.1 433.66 540.82 433.59C538.25 433.21 530.76 431.87 527.09 431.18C526.94 431.14 526.8 431.08 526.68 430.98C526.56 430.88 526.47 430.76 526.41 430.62C526.34 430.48 526.31 430.32 526.32 430.17C526.33 430.02 526.37 429.87 526.44 429.73L526.44 429.73L530.79 422.18C530.94 421.93 531.11 421.69 531.3 421.48C531.49 421.26 531.71 421.07 531.94 420.9C532.17 420.72 532.43 420.58 532.69 420.46C532.95 420.34 533.23 420.24 533.51 420.18C547.52 417 566 413.32 583.65 410.21Z"></path><path id="Layer" class="shp1" d="M428.68 444.89C428.84 444.88 429 444.89 429.16 444.92C429.32 444.96 429.47 445.02 429.61 445.1C429.75 445.19 429.87 445.29 429.98 445.41C430.09 445.53 430.18 445.67 430.24 445.82C430.44 446.32 430.58 446.84 430.67 447.38C430.76 447.91 430.8 448.45 430.78 448.99C430.76 449.53 430.69 450.06 430.56 450.59C430.44 451.11 430.26 451.62 430.03 452.11C429.92 452.32 429.79 452.52 429.63 452.71C429.48 452.89 429.31 453.06 429.12 453.21C428.94 453.36 428.73 453.49 428.52 453.6C428.31 453.71 428.08 453.8 427.85 453.86L427.85 453.86L420.85 455.41C420.75 455.43 420.65 455.43 420.56 455.4C420.46 455.38 420.37 455.33 420.3 455.27C420.22 455.2 420.16 455.12 420.12 455.03C420.08 454.94 420.06 454.84 420.07 454.74L420.07 454.74L420.72 446.52C420.73 446.39 420.77 446.27 420.83 446.16C420.88 446.04 420.96 445.94 421.05 445.85C421.14 445.76 421.24 445.68 421.36 445.63C421.47 445.57 421.59 445.53 421.72 445.52L421.72 445.52L428.68 444.89Z"></path><path id="Layer" class="shp1" d="M508.2 392.12C508.39 392.1 508.58 392.14 508.75 392.23C508.91 392.32 509.05 392.45 509.15 392.61C509.24 392.78 509.29 392.96 509.28 393.15C509.28 393.34 509.22 393.52 509.11 393.68L509.11 393.68L492.11 423.05C491.88 423.48 491.6 423.88 491.29 424.25C490.98 424.63 490.63 424.97 490.25 425.28C489.87 425.58 489.47 425.85 489.04 426.08C488.61 426.31 488.16 426.5 487.69 426.64L487.69 426.64L455.74 436.64C454.87 436.91 454 437.15 453.11 437.37C452.23 437.59 451.34 437.78 450.45 437.95C449.55 438.12 448.66 438.26 447.75 438.37C446.85 438.49 445.95 438.58 445.04 438.64C437.95 439.17 416.91 439.83 416.91 439.83L416.91 439.83L417.37 438.83C417.42 438.71 417.49 438.6 417.56 438.5C417.64 438.39 417.72 438.29 417.81 438.2C417.9 438.11 418 438.03 418.11 437.96C418.22 437.89 418.33 437.83 418.45 437.78L418.45 437.78L428.45 433.55C428.63 433.47 428.81 433.38 428.99 433.28C429.16 433.18 429.33 433.07 429.49 432.95C429.65 432.83 429.8 432.7 429.94 432.56C430.09 432.42 430.22 432.27 430.35 432.12L430.35 432.12L445.73 413.12C445.94 412.86 446.15 412.61 446.38 412.37C446.61 412.13 446.85 411.9 447.1 411.68C447.36 411.46 447.62 411.26 447.89 411.07C448.16 410.87 448.44 410.7 448.73 410.53C452.03 408.84 455.36 407.21 458.71 405.63C462.07 404.06 465.45 402.54 468.86 401.07C472.27 399.61 475.7 398.21 479.15 396.86C482.61 395.52 486.08 394.23 489.58 393C489.91 392.9 490.24 392.81 490.57 392.73C490.91 392.65 491.25 392.58 491.59 392.52C491.93 392.47 492.27 392.43 492.61 392.39C492.95 392.36 493.3 392.35 493.64 392.34L493.64 392.34L508.2 392.12Z"></path><path id="Layer" class="shp1" d="M491.11 358C526.37 354.89 574.11 354 619.65 357.5C620.29 357.55 620.94 357.62 621.58 357.73C622.22 357.83 622.85 357.95 623.48 358.11C624.11 358.26 624.73 358.44 625.34 358.64C625.96 358.84 626.56 359.07 627.16 359.32C642.09 365.61 668.58 379.32 698.04 396.23C698.36 396.42 698.68 396.61 699 396.81C699.31 397.02 699.62 397.23 699.93 397.44C700.23 397.66 700.53 397.89 700.82 398.12C701.11 398.35 701.4 398.59 701.68 398.84C709.49 405.72 729.26 425.97 729.26 425.97L729.26 425.97L723.09 424.75C722.88 424.71 722.66 424.65 722.46 424.59C722.25 424.53 722.04 424.45 721.84 424.37C721.64 424.29 721.44 424.19 721.25 424.09C721.06 423.98 720.87 423.87 720.69 423.75C716.99 421.29 713.25 418.87 709.48 416.51C705.71 414.16 701.91 411.85 698.07 409.6C694.24 407.35 690.37 405.15 686.47 403.01C682.57 400.87 678.65 398.78 674.69 396.75C674.24 396.52 673.78 396.32 673.31 396.13C672.84 395.95 672.36 395.78 671.88 395.64C671.39 395.5 670.9 395.38 670.41 395.28C669.91 395.18 669.41 395.1 668.91 395.05C661.48 394.26 651.45 393.56 644.91 393.3C644.16 393.29 643.41 393.23 642.67 393.12C641.93 393.02 641.19 392.87 640.47 392.68C639.74 392.48 639.03 392.25 638.33 391.97C637.64 391.69 636.96 391.37 636.3 391.01C630.25 387.94 615.58 381.28 608.3 378.49C607.69 378.22 607.07 377.99 606.43 377.8C605.79 377.6 605.15 377.45 604.49 377.33C603.84 377.21 603.18 377.12 602.51 377.08C601.85 377.03 601.18 377.03 600.52 377.06C587.96 377.24 559.37 378.16 544.77 379.06C544.65 379.07 544.52 379.07 544.4 379.07C544.28 379.07 544.15 379.07 544.03 379.07C543.9 379.06 543.78 379.05 543.66 379.04C543.53 379.03 543.41 379.01 543.29 378.99L543.29 378.99L536.29 377.9C556.03 374.5 604.81 370.15 625 369.09L625 369.09L616.78 366.34C616.38 366.21 615.98 366.09 615.58 365.99C615.18 365.89 614.77 365.8 614.36 365.73C613.95 365.66 613.53 365.6 613.12 365.56C612.7 365.52 612.29 365.5 611.87 365.49C607.48 365.38 597.74 365.19 585.08 365.17L580.8 365.17C561.64 365.17 536.98 365.68 514.24 367.39C513.74 367.43 513.25 367.48 512.76 367.56C512.27 367.64 511.78 367.74 511.3 367.86C510.82 367.98 510.34 368.12 509.87 368.29C509.4 368.45 508.93 368.63 508.48 368.83C499.3 372.83 476.9 385.03 454.43 397.52L449.43 400.29C443.62 403.53 437.88 406.76 432.43 409.83L435.77 405.52C435.85 405.4 435.94 405.29 436.04 405.18C436.13 405.07 436.23 404.97 436.34 404.87C436.45 404.78 436.56 404.69 436.68 404.6C436.79 404.52 436.91 404.44 437.04 404.37C437.95 403.78 441.04 401.74 444.14 399.68L446.44 398.15C448.3 396.91 449.97 395.79 450.91 395.15C451.37 394.84 451.67 394.61 452.25 394.15C459.01 389.04 469.69 380.04 476.05 374.47C476.41 374.16 476.75 373.83 477.09 373.49C477.42 373.15 477.74 372.79 478.05 372.43C478.36 372.06 478.65 371.69 478.93 371.3C479.21 370.91 479.47 370.52 479.72 370.11C481.72 366.78 484.02 363.17 485.4 361.16C485.73 360.7 486.1 360.28 486.52 359.91C486.95 359.53 487.41 359.21 487.9 358.93C488.39 358.66 488.91 358.45 489.45 358.29C489.99 358.13 490.55 358.03 491.11 358L491.11 358Z"></path><path id="Layer" class="shp1" d="M341 276.92C349.7 276.02 354.57 279.4 354.57 288.23L354.57 288.23L354.57 293.11C354.57 302.11 349.7 305.79 341 306.69C328.95 307.95 316.91 309.32 304.88 310.79L304.88 310.79L304.88 324.13L297.31 325.07L297.31 325.07L297.31 282C311.85 280.13 326.41 278.44 341 276.92Z"></path><path id="Layer" class="shp1" d="M745.17 275.52C764.37 277.39 783.55 279.54 802.71 281.96L802.71 281.96L802.71 288.96C794.43 287.91 786.14 286.91 777.84 285.96L777.84 285.96L777.84 322.13L770.26 321.28L770.26 321.28L770.26 285.07C761.91 284.15 753.54 283.28 745.17 282.47L745.17 282.47L745.17 275.52Z"></path><path id="Layer" class="shp1" d="M426.19 269.85L426.19 276.85C410.4 277.83 394.62 278.99 378.83 280.33L378.83 280.33L378.83 290.9C392.87 289.69 406.91 288.64 420.95 287.75L420.95 287.75L420.95 294.75C406.91 295.65 392.87 296.7 378.83 297.89L378.83 297.89L378.83 309.54C394.61 308.21 410.4 307.05 426.19 306.06L426.19 306.06L426.19 313.06C407.92 314.19 389.66 315.56 371.42 317.19L371.42 317.19L371.42 274C389.67 272.38 407.93 271.01 426.19 269.88L426.19 269.85Z"></path><path id="Layer" class="shp1" d="M671.86 281.66C671.86 271.99 676.65 270 687.44 270.73C696.92 271.4 706.39 272.12 715.86 272.89C725.24 273.66 731.43 276.3 731.43 286.16L731.43 286.16L731.43 305.41C731.43 315.1 726.08 316.84 715.86 316C706.39 315.21 696.91 314.49 687.44 313.85C677.12 313.15 671.86 311.16 671.86 300.91L671.86 300.91L671.86 281.66Z"></path><path id="Layer" class="shp1" d="M598.4 266.62C616.69 267.06 634.98 267.75 653.25 268.69L653.25 268.69L653.25 275.69C637.45 274.88 621.64 274.25 605.82 273.82L605.82 273.82L605.82 284.43C619.89 284.81 633.95 285.33 648 286L648 286L648 293C633.94 292.33 619.88 291.8 605.81 291.39L605.81 291.39L605.81 303C621.63 303.43 637.44 304.05 653.24 304.87L653.24 304.87L653.24 311.87C634.96 310.94 616.68 310.25 598.39 309.8L598.39 309.8L598.4 266.62Z"></path><path id="Layer" class="shp1" d="M503.24 266.59L503.24 297.77C503.24 307.64 498.06 309.77 487.63 310.12C478.55 310.41 469.47 310.75 460.39 311.12C450.71 311.56 444.8 309.71 444.8 299.95L444.8 299.95L444.8 268.79L444.8 268.79L452.21 268.41L452.21 300.91C452.22 301.4 452.34 301.89 452.55 302.34C452.75 302.78 453.05 303.18 453.42 303.51C453.79 303.83 454.22 304.08 454.69 304.23C455.16 304.38 455.66 304.44 456.15 304.39C468.06 303.84 479.97 303.39 491.86 303.04C492.35 303.04 492.85 302.94 493.3 302.76C493.76 302.57 494.18 302.29 494.53 301.94C494.87 301.59 495.15 301.17 495.34 300.71C495.53 300.26 495.62 299.76 495.62 299.27L495.62 299.27L495.62 266.78C498.16 266.71 500.69 266.64 503.24 266.59Z"></path><path id="Layer" class="shp0" d="M683.22 277.41C682.71 277.35 682.19 277.39 681.69 277.55C681.2 277.71 680.75 277.97 680.37 278.32C679.99 278.67 679.69 279.1 679.49 279.58C679.29 280.06 679.2 280.57 679.22 281.09L679.22 281.09L679.22 302.41C679.24 302.94 679.36 303.46 679.56 303.95C679.77 304.44 680.06 304.89 680.42 305.27C680.79 305.66 681.22 305.97 681.7 306.2C682.18 306.43 682.69 306.57 683.22 306.62C695.52 307.43 707.81 308.36 720.09 309.4C720.58 309.41 721.08 309.33 721.54 309.16C722 308.99 722.43 308.73 722.79 308.4C723.15 308.06 723.45 307.66 723.66 307.21C723.87 306.77 723.99 306.28 724.02 305.79L724.02 305.79L724.02 284.47C724 283.94 723.89 283.42 723.69 282.93C723.49 282.44 723.2 281.99 722.84 281.6C722.49 281.21 722.06 280.89 721.59 280.65C721.12 280.4 720.61 280.25 720.09 280.18C707.8 279.14 695.51 278.22 683.22 277.41Z"></path><path id="Layer" class="shp1" d="M536 266.09C549.64 265.99 563.27 266.03 576.89 266.22L576.89 266.22L576.89 273.22C562.33 273.03 547.76 273 533.18 273.11C532.68 273.11 532.19 273.21 531.73 273.4C531.27 273.58 530.85 273.85 530.48 274.19C530.12 274.53 529.83 274.93 529.61 275.38C529.4 275.83 529.27 276.31 529.23 276.81L529.23 276.81L529.23 298.41C529.26 298.92 529.39 299.41 529.6 299.88C529.81 300.34 530.1 300.76 530.46 301.11C530.82 301.47 531.25 301.76 531.71 301.97C532.18 302.17 532.67 302.29 533.18 302.32C546.25 302.21 559.31 302.23 572.38 302.38L572.38 302.38L572.38 290.68C564.8 290.6 557.22 290.56 549.64 290.56L549.64 290.56L549.64 283.56C559.69 283.56 569.74 283.63 579.81 283.78L579.81 283.78L579.81 309.33C565.68 309.12 551.55 309.06 537.41 309.14C527.07 309.21 521.81 307.43 521.81 297.37L521.81 297.37L521.81 278.63C521.84 269.25 526.54 266.16 536 266.09Z"></path><path id="Layer" class="shp0" d="M343.81 283.63L343.22 283.63C330.43 284.96 317.65 286.41 304.86 287.96L304.86 287.96L304.86 303.83C317.64 302.27 330.43 300.83 343.22 299.5C345.22 299.29 347.15 297.5 347.15 295.62L347.15 295.62L347.15 286.9C347.12 286.42 346.99 285.96 346.77 285.53C346.56 285.1 346.26 284.73 345.89 284.42C345.52 284.12 345.09 283.89 344.63 283.76C344.18 283.62 343.69 283.58 343.22 283.64L343.81 283.63Z"></path><path id="Layer" class="shp2" d="M175 175L925 175L925 925L175 925L175 175Z"></path></svg>