<svg width="240" height="120" viewBox="0 0 240 120" fill="none" xmlns="http://www.w3.org/2000/svg" role="img" aria-labelledby="title">
  <title id="title">Chery</title>
  <path d="M54 44C73 25 100 18 120 18C140 18 167 25 186 44C199 57 206 72 208 82H180C174 58 151 41 120 41C89 41 66 58 60 82H32C34 72 41 57 54 44Z" fill="#C8102E"/>
  <path d="M79 82C89 61 104 51 120 51C136 51 151 61 161 82H139C135 75 128 70 120 70C112 70 105 75 101 82H79Z" fill="#C8102E"/>
  <text x="120" y="111" fill="#C8102E" font-family="Arial, Helvetica, sans-serif" font-size="28" font-weight="700" letter-spacing="2" text-anchor="middle">CHERY</text>
</svg>
