<?xml version="1.0" encoding="UTF-8" standalone="no"?>
<!-- Created with Inkscape (http://www.inkscape.org/) -->

<svg
   width="132.29167mm"
   height="24.426977mm"
   viewBox="0 0 132.29167 24.426977"
   version="1.1"
   id="svg1"
   inkscape:version="1.4 (86a8ad7, 2024-10-11)"
   sodipodi:docname="GWM 2025 logo.svg"
   xmlns:inkscape="http://www.inkscape.org/namespaces/inkscape"
   xmlns:sodipodi="http://sodipodi.sourceforge.net/DTD/sodipodi-0.dtd"
   xmlns="http://www.w3.org/2000/svg"
   xmlns:svg="http://www.w3.org/2000/svg">
  <sodipodi:namedview
     id="namedview1"
     pagecolor="#ffffff"
     bordercolor="#000000"
     borderopacity="0.25"
     inkscape:showpageshadow="2"
     inkscape:pageopacity="0.0"
     inkscape:pagecheckerboard="0"
     inkscape:deskcolor="#d1d1d1"
     inkscape:document-units="mm"
     inkscape:zoom="1.9729351"
     inkscape:cx="229.60715"
     inkscape:cy="69.186261"
     inkscape:window-width="1920"
     inkscape:window-height="1001"
     inkscape:window-x="-9"
     inkscape:window-y="-9"
     inkscape:window-maximized="1"
     inkscape:current-layer="layer1" />
  <defs
     id="defs1">
    <clipPath
       clipPathUnits="userSpaceOnUse"
       id="clipPath29">
      <path
         d="M 0,0 H 841.89 V 595.276 H 0 Z"
         transform="translate(-171.5425,-518.97081)"
         id="path29" />
    </clipPath>
    <clipPath
       clipPathUnits="userSpaceOnUse"
       id="clipPath31">
      <path
         d="M 0,0 H 841.89 V 595.276 H 0 Z"
         transform="translate(-147.0723,-533.43161)"
         id="path31" />
    </clipPath>
    <clipPath
       clipPathUnits="userSpaceOnUse"
       id="clipPath33">
      <path
         d="M 0,0 H 841.89 V 595.276 H 0 Z"
         transform="translate(-119.8774,-530.64481)"
         id="path33" />
    </clipPath>
    <clipPath
       clipPathUnits="userSpaceOnUse"
       id="clipPath37">
      <path
         d="M 0,0 H 841.89 V 595.276 H 0 Z"
         transform="translate(-86.188502,-521.39591)"
         id="path37" />
    </clipPath>
    <clipPath
       clipPathUnits="userSpaceOnUse"
       id="clipPath29-7">
      <path
         d="M 0,0 H 841.89 V 595.276 H 0 Z"
         transform="translate(-171.5425,-518.97081)"
         id="path29-7" />
    </clipPath>
    <clipPath
       clipPathUnits="userSpaceOnUse"
       id="clipPath31-9">
      <path
         d="M 0,0 H 841.89 V 595.276 H 0 Z"
         transform="translate(-147.0723,-533.43161)"
         id="path31-3" />
    </clipPath>
    <clipPath
       clipPathUnits="userSpaceOnUse"
       id="clipPath33-1">
      <path
         d="M 0,0 H 841.89 V 595.276 H 0 Z"
         transform="translate(-119.8774,-530.64481)"
         id="path33-9" />
    </clipPath>
    <clipPath
       clipPathUnits="userSpaceOnUse"
       id="clipPath37-8">
      <path
         d="M 0,0 H 841.89 V 595.276 H 0 Z"
         transform="translate(-86.188502,-521.39591)"
         id="path37-6" />
    </clipPath>
  </defs>
  <g
     inkscape:label="Layer 1"
     inkscape:groupmode="layer"
     id="layer1"
     transform="translate(30.93297,19.295353)">
    <path
       id="path28"
       d="M 0,0 V 14.354 C 0.02,14.681 -0.091,14.8 -0.512,14.8 h -4.374 c -0.401,0.014 -0.998,-0.196 -1.181,-0.609 L -11.341,3.315 c 0,0 -0.049,-0.068 -0.131,-0.068 -0.089,0 -0.162,0.087 -0.162,0.087 l -5.236,10.815 c -0.154,0.371 -0.744,0.678 -1.221,0.651 h -4.357 c -0.459,-0.015 -0.516,-0.133 -0.534,-0.446 V -0.021 c 0.031,-0.474 0.38,-0.688 0.63,-0.688 h 4.817 c 0.231,0.027 0.228,0.157 0.267,0.389 v 7.867 c 0,0 -0.012,0.166 0.1,0.202 0.163,0.049 0.263,-0.189 0.263,-0.189 l 3.675,-7.756 c 0.172,-0.343 0.293,-0.513 0.637,-0.513 h 2.22 c 0.344,0 0.476,0.17 0.666,0.513 l 3.679,7.77 c 0,0 0.075,0.175 0.232,0.149 0.112,-0.019 0.129,-0.152 0.129,-0.152 V -0.34 c 0.018,-0.247 0.025,-0.369 0.293,-0.369 h 4.773 C -0.39,-0.682 -0.024,-0.422 0,0"
       style="fill:#000000;fill-opacity:1;fill-rule:nonzero;stroke:none"
       transform="matrix(0.35277776,0,0,-0.35277776,182.60828,113.04459)"
       clip-path="url(#clipPath29)" />
    <path
       id="path30"
       d="M 0,0 C 0.096,0.26 -0.038,0.389 -0.403,0.389 H -4.661 C -5.083,0.403 -5.49,0.043 -5.608,-0.416 L -8.38,-9.037 c 0,0 -0.03,-0.153 -0.164,-0.153 -0.137,-0.001 -0.171,0.159 -0.171,0.159 l -2.934,8.97 c -0.097,0.315 -0.274,0.464 -0.712,0.45 h -0.979 c -0.459,-0.027 -0.564,-0.184 -0.679,-0.47 l -2.926,-8.956 c 0,0 -0.033,-0.174 -0.168,-0.174 -0.137,0 -0.172,0.183 -0.172,0.183 l -2.793,8.573 c -0.081,0.465 -0.495,0.844 -0.802,0.844 h -4.46 c -0.365,0 -0.465,-0.168 -0.35,-0.414 l 4.87,-14.582 c 0.134,-0.328 0.383,-0.533 0.746,-0.548 h 3.22 c 0.536,-0.027 0.851,0.192 0.947,0.588 l 2.724,7.87 c 0,0 0.078,0.373 0.325,0.373 0.249,0 0.325,-0.371 0.325,-0.371 l 2.724,-7.893 c 0.096,-0.366 0.403,-0.58 0.919,-0.567 h 3.282 c 0.442,-0.013 0.719,0.205 0.834,0.588 z"
       style="fill:#000000;fill-opacity:1;fill-rule:nonzero;stroke:none"
       transform="matrix(0.35277776,0,0,-0.35277776,173.97574,107.94314)"
       clip-path="url(#clipPath31)" />
    <path
       id="path32"
       d="m 0,0 -0.001,2.623 c 0,0.258 -0.077,0.297 -0.156,0.376 -0.109,0.111 -0.333,0.118 -1.009,0.118 h -16.23 c -1.376,-0.013 -2.47,-0.218 -3.281,-0.615 -0.787,-0.423 -2.387,-1.445 -2.387,-4.624 V -6.82 c 0,-3.836 1.576,-4.438 2.241,-4.835 0.858,-0.492 2.001,-0.737 3.427,-0.737 h 12.782 c 1.378,0 2.209,0.163 3.006,0.627 0.887,0.516 1.565,1.459 1.565,4.26 v 3.162 c 0,0.698 0.106,1.154 -0.78,1.154 h -7.701 -4.353 c -0.344,-0.015 -0.382,-0.103 -0.406,-0.266 v -2.2 c 0,-0.163 0.114,-0.3 0.406,-0.3 h 6.412 c 0.944,0 0.944,0.011 0.944,-0.498 v -1.474 c 0,-0.399 -0.369,-0.934 -1.21,-0.934 h -9.456 c -1.307,0 -1.375,0.792 -1.375,1.356 v 5.801 c 0,0.85 0.268,1.397 1.601,1.397 L -2.295,-0.31 h 1.943 C -0.138,-0.31 0,-0.195 0,0"
       style="fill:#000000;fill-opacity:1;fill-rule:nonzero;stroke:none"
       transform="matrix(0.35277776,0,0,-0.35277776,164.38198,108.92626)"
       clip-path="url(#clipPath33)" />
    <path
       id="path36"
       d="M 0,0 C 0.706,1.098 1.114,2.3 1.228,3.611 1.281,4.224 1.288,4.837 1.242,5.449 1.212,5.853 1.173,6.259 1.099,6.656 0.932,7.549 0.573,8.369 0.114,9.138 c -0.839,1.407 -1.953,2.548 -3.278,3.47 -1.194,0.831 -2.49,1.45 -3.852,1.927 -2.158,0.756 -4.382,1.131 -6.655,1.214 -1.937,0.071 -3.858,-0.074 -5.755,-0.494 -1.454,-0.322 -2.865,-0.782 -4.216,-1.426 -1.729,-0.825 -3.258,-1.936 -4.526,-3.408 -1.192,-1.385 -1.895,-2.996 -2.069,-4.841 -0.094,-0.996 -0.017,-1.984 0.23,-2.954 0.564,-2.216 1.763,-3.994 3.537,-5.363 0.939,-0.724 1.974,-1.264 3.075,-1.684 1.471,-0.562 2.953,-1.06 4.534,-1.148 0.794,-0.044 1.583,-0.005 2.343,0.248 0.861,0.287 1.407,0.891 1.641,1.797 0.174,0.676 0.223,1.362 0.223,2.056 0,3.967 0,7.934 0,11.901 0,0.03 10e-4,0.06 0,0.09 -0.005,0.203 -0.05,0.234 -0.223,0.141 -0.168,-0.09 -0.331,-0.191 -0.5,-0.28 -1.753,-0.915 -3.506,-1.83 -5.261,-2.74 -0.099,-0.051 -0.137,-0.11 -0.141,-0.221 -0.043,-1.237 -0.089,-2.474 -0.137,-3.711 -0.03,-0.767 -0.048,-1.535 -0.175,-2.293 -0.136,-0.809 -0.498,-1.503 -1.093,-2.047 -0.492,-0.449 -1.074,-0.714 -1.743,-0.765 -0.535,-0.041 -1.054,-0.005 -1.563,0.192 -1.231,0.477 -2.103,1.351 -2.673,2.553 -0.693,1.461 -0.88,3.007 -0.65,4.604 0.202,1.395 0.764,2.637 1.603,3.746 1.048,1.385 2.37,2.423 3.883,3.213 1.903,0.993 3.94,1.516 6.047,1.776 0.667,0.082 1.339,0.126 2.01,0.167 1.086,0.068 2.172,0.051 3.254,-0.077 1.167,-0.137 2.315,-0.374 3.442,-0.717 1.584,-0.483 3.092,-1.142 4.472,-2.089 1.496,-1.026 2.648,-2.356 3.39,-4.05 0.34,-0.777 0.548,-1.593 0.623,-2.441 0.064,-0.726 0.033,-1.45 -0.082,-2.17 -0.196,-1.226 -0.638,-2.338 -1.462,-3.259 -0.935,-1.044 -2.087,-1.566 -3.481,-1.417 -0.839,0.089 -1.532,0.482 -2.045,1.178 -0.574,0.778 -0.801,1.676 -0.833,2.637 -0.034,1.008 -0.067,2.016 -0.101,3.024 -0.018,0.552 -0.05,1.105 -0.055,1.658 -0.004,0.441 0.043,0.433 -0.393,0.656 -1.206,0.619 -2.411,1.239 -3.614,1.865 -0.586,0.305 -1.165,0.627 -1.749,0.937 -0.106,0.055 -0.222,0.088 -0.36,0.142 v -0.178 c -0.003,-3.09 -0.007,-6.18 -0.005,-9.27 10e-4,-1.226 0.01,-2.453 0.031,-3.679 0.008,-0.478 0.086,-0.949 0.259,-1.4 0.205,-0.535 0.497,-0.989 1.006,-1.276 0.499,-0.28 1.033,-0.411 1.59,-0.466 0.853,-0.085 1.702,-0.026 2.545,0.119 1.373,0.236 2.686,0.673 3.956,1.256 C -2.878,-3.239 -1.219,-1.896 0,0"
       style="fill:#000000;fill-opacity:1;fill-rule:nonzero;stroke:none"
       transform="matrix(0.35277776,0,0,-0.35277776,152.49729,112.18907)"
       clip-path="url(#clipPath37)" />
    <path
       id="path28-0"
       d="M 0,0 V 14.354 C 0.02,14.681 -0.091,14.8 -0.512,14.8 h -4.374 c -0.401,0.014 -0.998,-0.196 -1.181,-0.609 L -11.341,3.315 c 0,0 -0.049,-0.068 -0.131,-0.068 -0.089,0 -0.162,0.087 -0.162,0.087 l -5.236,10.815 c -0.154,0.371 -0.744,0.678 -1.221,0.651 h -4.357 c -0.459,-0.015 -0.516,-0.133 -0.534,-0.446 V -0.021 c 0.031,-0.474 0.38,-0.688 0.63,-0.688 h 4.817 c 0.231,0.027 0.228,0.157 0.267,0.389 v 7.867 c 0,0 -0.012,0.166 0.1,0.202 0.163,0.049 0.263,-0.189 0.263,-0.189 l 3.675,-7.756 c 0.172,-0.343 0.293,-0.513 0.637,-0.513 h 2.22 c 0.344,0 0.476,0.17 0.666,0.513 l 3.679,7.77 c 0,0 0.075,0.175 0.232,0.149 0.112,-0.019 0.129,-0.152 0.129,-0.152 V -0.34 c 0.018,-0.247 0.025,-0.369 0.293,-0.369 h 4.773 C -0.39,-0.682 -0.024,-0.422 0,0"
       style="fill:#e60000;fill-opacity:1;fill-rule:nonzero;stroke:none;stroke-width:0.308352"
       transform="matrix(1.144075,0,0,-1.144075,101.35616,1.5169189)"
       clip-path="url(#clipPath29-7)" />
    <path
       id="path30-2"
       d="M 0,0 C 0.096,0.26 -0.038,0.389 -0.403,0.389 H -4.661 C -5.083,0.403 -5.49,0.043 -5.608,-0.416 L -8.38,-9.037 c 0,0 -0.03,-0.153 -0.164,-0.153 -0.137,-0.001 -0.171,0.159 -0.171,0.159 l -2.934,8.97 c -0.097,0.315 -0.274,0.464 -0.712,0.45 h -0.979 c -0.459,-0.027 -0.564,-0.184 -0.679,-0.47 l -2.926,-8.956 c 0,0 -0.033,-0.174 -0.168,-0.174 -0.137,0 -0.172,0.183 -0.172,0.183 l -2.793,8.573 c -0.081,0.465 -0.495,0.844 -0.802,0.844 h -4.46 c -0.365,0 -0.465,-0.168 -0.35,-0.414 l 4.87,-14.582 c 0.134,-0.328 0.383,-0.533 0.746,-0.548 h 3.22 c 0.536,-0.027 0.851,0.192 0.947,0.588 l 2.724,7.87 c 0,0 0.078,0.373 0.325,0.373 0.249,0 0.325,-0.371 0.325,-0.371 l 2.724,-7.893 c 0.096,-0.366 0.403,-0.58 0.919,-0.567 h 3.282 c 0.442,-0.013 0.719,0.205 0.834,0.588 z"
       style="fill:#e60000;fill-opacity:1;fill-rule:nonzero;stroke:none;stroke-width:0.308352"
       transform="matrix(1.144075,0,0,-1.144075,73.36042,-15.027324)"
       clip-path="url(#clipPath31-9)" />
    <path
       id="path32-8"
       d="m 0,0 -0.001,2.623 c 0,0.258 -0.077,0.297 -0.156,0.376 -0.109,0.111 -0.333,0.118 -1.009,0.118 h -16.23 c -1.376,-0.013 -2.47,-0.218 -3.281,-0.615 -0.787,-0.423 -2.387,-1.445 -2.387,-4.624 V -6.82 c 0,-3.836 1.576,-4.438 2.241,-4.835 0.858,-0.492 2.001,-0.737 3.427,-0.737 h 12.782 c 1.378,0 2.209,0.163 3.006,0.627 0.887,0.516 1.565,1.459 1.565,4.26 v 3.162 c 0,0.698 0.106,1.154 -0.78,1.154 h -7.701 -4.353 c -0.344,-0.015 -0.382,-0.103 -0.406,-0.266 v -2.2 c 0,-0.163 0.114,-0.3 0.406,-0.3 h 6.412 c 0.944,0 0.944,0.011 0.944,-0.498 v -1.474 c 0,-0.399 -0.369,-0.934 -1.21,-0.934 h -9.456 c -1.307,0 -1.375,0.792 -1.375,1.356 v 5.801 c 0,0.85 0.268,1.397 1.601,1.397 L -2.295,-0.31 h 1.943 C -0.138,-0.31 0,-0.195 0,0"
       style="fill:#e60000;fill-opacity:1;fill-rule:nonzero;stroke:none;stroke-width:0.308352"
       transform="matrix(1.144075,0,0,-1.144075,42.247412,-11.839016)"
       clip-path="url(#clipPath33-1)" />
    <path
       id="path36-6"
       d="M 0,0 C 0.706,1.098 1.114,2.3 1.228,3.611 1.281,4.224 1.288,4.837 1.242,5.449 1.212,5.853 1.173,6.259 1.099,6.656 0.932,7.549 0.573,8.369 0.114,9.138 c -0.839,1.407 -1.953,2.548 -3.278,3.47 -1.194,0.831 -2.49,1.45 -3.852,1.927 -2.158,0.756 -4.382,1.131 -6.655,1.214 -1.937,0.071 -3.858,-0.074 -5.755,-0.494 -1.454,-0.322 -2.865,-0.782 -4.216,-1.426 -1.729,-0.825 -3.258,-1.936 -4.526,-3.408 -1.192,-1.385 -1.895,-2.996 -2.069,-4.841 -0.094,-0.996 -0.017,-1.984 0.23,-2.954 0.564,-2.216 1.763,-3.994 3.537,-5.363 0.939,-0.724 1.974,-1.264 3.075,-1.684 1.471,-0.562 2.953,-1.06 4.534,-1.148 0.794,-0.044 1.583,-0.005 2.343,0.248 0.861,0.287 1.407,0.891 1.641,1.797 0.174,0.676 0.223,1.362 0.223,2.056 0,3.967 0,7.934 0,11.901 0,0.03 10e-4,0.06 0,0.09 -0.005,0.203 -0.05,0.234 -0.223,0.141 -0.168,-0.09 -0.331,-0.191 -0.5,-0.28 -1.753,-0.915 -3.506,-1.83 -5.261,-2.74 -0.099,-0.051 -0.137,-0.11 -0.141,-0.221 -0.043,-1.237 -0.089,-2.474 -0.137,-3.711 -0.03,-0.767 -0.048,-1.535 -0.175,-2.293 -0.136,-0.809 -0.498,-1.503 -1.093,-2.047 -0.492,-0.449 -1.074,-0.714 -1.743,-0.765 -0.535,-0.041 -1.054,-0.005 -1.563,0.192 -1.231,0.477 -2.103,1.351 -2.673,2.553 -0.693,1.461 -0.88,3.007 -0.65,4.604 0.202,1.395 0.764,2.637 1.603,3.746 1.048,1.385 2.37,2.423 3.883,3.213 1.903,0.993 3.94,1.516 6.047,1.776 0.667,0.082 1.339,0.126 2.01,0.167 1.086,0.068 2.172,0.051 3.254,-0.077 1.167,-0.137 2.315,-0.374 3.442,-0.717 1.584,-0.483 3.092,-1.142 4.472,-2.089 1.496,-1.026 2.648,-2.356 3.39,-4.05 0.34,-0.777 0.548,-1.593 0.623,-2.441 0.064,-0.726 0.033,-1.45 -0.082,-2.17 -0.196,-1.226 -0.638,-2.338 -1.462,-3.259 -0.935,-1.044 -2.087,-1.566 -3.481,-1.417 -0.839,0.089 -1.532,0.482 -2.045,1.178 -0.574,0.778 -0.801,1.676 -0.833,2.637 -0.034,1.008 -0.067,2.016 -0.101,3.024 -0.018,0.552 -0.05,1.105 -0.055,1.658 -0.004,0.441 0.043,0.433 -0.393,0.656 -1.206,0.619 -2.411,1.239 -3.614,1.865 -0.586,0.305 -1.165,0.627 -1.749,0.937 -0.106,0.055 -0.222,0.088 -0.36,0.142 v -0.178 c -0.003,-3.09 -0.007,-6.18 -0.005,-9.27 10e-4,-1.226 0.01,-2.453 0.031,-3.679 0.008,-0.478 0.086,-0.949 0.259,-1.4 0.205,-0.535 0.497,-0.989 1.006,-1.276 0.499,-0.28 1.033,-0.411 1.59,-0.466 0.853,-0.085 1.702,-0.026 2.545,0.119 1.373,0.236 2.686,0.673 3.956,1.256 C -2.878,-3.239 -1.219,-1.896 0,0"
       style="fill:#e60000;fill-opacity:1;fill-rule:nonzero;stroke:none;stroke-width:0.308352"
       transform="matrix(1.144075,0,0,-1.144075,3.7047874,-1.2575801)"
       clip-path="url(#clipPath37-8)" />
  </g>
</svg>
