<svg xmlns="http://www.w3.org/2000/svg" viewBox="0 0 64 64">
  <rect width="64" height="64" rx="14" fill="#0A2E73" />
  <path d="M17 42c2.3 4 7.2 6.5 14.4 6.5 8.9 0 15.1-4.1 15.1-10.9 0-6.2-4.5-8.3-13.4-10-5.1-1-7.3-1.7-7.3-4 0-2 2-3.2 5.6-3.2 4 0 6.4 1.5 7.7 4.3l6.1-3.5c-2.5-4.8-7.3-7.4-13.7-7.4-7.6 0-13.6 3.7-13.6 10.3 0 6.2 4.4 8.6 13.2 10.2 5.7 1.1 7.5 1.9 7.5 4 0 2.2-2.3 3.6-6.8 3.6-4.9 0-7.8-1.7-9.5-4.9L17 42Z" fill="#F4B400" />
  <path d="M18 51h29" stroke="#ffffff" stroke-width="3" stroke-linecap="round" opacity=".88" />
</svg>
